<svg xmlns="http://www.w3.org/2000/svg" xmlns:xlink="http://www.w3.org/1999/xlink" width="102px" height="54px" viewBox="0 0 102 54" version="1.1">
<g id="surface1">
<path style="stroke:none;fill-rule:evenodd;fill:rgb(100%,0%,100%);fill-opacity:1;" d="M 11.019531 14.050781 L 19.980469 14.050781 C 20.074219 14.050781 20.152344 14.128906 20.152344 14.230469 L 20.152344 41.082031 C 20.152344 41.148438 20.125 41.199219 20.066406 41.234375 C 20.015625 41.273438 19.953125 41.273438 19.894531 41.242188 C 16.464844 39.511719 13.042969 38.015625 9.554688 38.636719 C 9.511719 38.636719 9.476562 38.628906 9.445312 38.609375 C 9.417969 38.582031 9.402344 38.550781 9.402344 38.507812 L 9.402344 37.625 C 9.402344 37.5625 9.453125 37.503906 9.515625 37.503906 C 10.191406 37.453125 10.84375 36.96875 10.84375 36.03125 L 10.84375 14.230469 C 10.84375 14.128906 10.921875 14.050781 11.015625 14.050781 Z M 80.941406 14.351562 C 84.953125 17.429688 85.785156 23.234375 83.050781 30.800781 C 82.984375 30.964844 83.195312 31.066406 83.257812 30.953125 L 86.722656 24.84375 L 92.699219 14.316406 C 92.769531 14.203125 92.683594 14.050781 92.546875 14.050781 L 81.0625 14.050781 C 80.902344 14.050781 80.808594 14.257812 80.9375 14.351562 Z M 58.746094 14.179688 L 58.746094 15.097656 C 58.746094 15.167969 58.804688 15.226562 58.875 15.226562 L 59.039062 15.226562 C 59.578125 15.226562 60.25 15.539062 60.628906 16.058594 L 76.019531 43.160156 C 76.046875 43.21875 76.105469 43.257812 76.171875 43.257812 C 76.238281 43.257812 76.292969 43.21875 76.324219 43.160156 L 81.171875 34.613281 C 81.207031 34.554688 81.207031 34.492188 81.171875 34.433594 L 69.523438 14.144531 C 69.496094 14.085938 69.4375 14.050781 69.371094 14.050781 L 58.875 14.050781 C 58.804688 14.050781 58.746094 14.109375 58.746094 14.179688 Z M 51.296875 14.230469 C 51.296875 14.128906 51.21875 14.050781 51.117188 14.050781 L 40.527344 14.050781 C 40.464844 14.050781 40.40625 14.109375 40.40625 14.179688 L 40.40625 15.097656 C 40.40625 15.167969 40.464844 15.226562 40.527344 15.226562 L 40.910156 15.226562 C 41.503906 15.226562 41.984375 15.710938 41.984375 16.308594 L 41.984375 41.308594 C 41.984375 41.375 42.027344 41.417969 42.078125 41.460938 C 44.101562 43.035156 47.582031 44.429688 51.117188 44.5 C 51.21875 44.507812 51.296875 44.429688 51.296875 44.324219 Z M 20.886719 41.421875 C 25.339844 41.378906 29.507812 39.054688 32.371094 36.007812 C 32.480469 35.890625 32.679688 35.980469 32.679688 36.152344 L 32.679688 44.324219 C 32.679688 44.421875 32.601562 44.5 32.5 44.5 C 28.089844 44.484375 24.757812 43.738281 20.808594 41.761719 C 20.644531 41.683594 20.699219 41.433594 20.886719 41.425781 Z M 20.886719 41.421875"></path>
</g>
</svg>
